<?xml version="1.0" encoding="utf-8"?>
<!-- Generator: Adobe Illustrator 18.1.0, SVG Export Plug-In . SVG Version: 6.00 Build 0)  -->
<svg version="1.1" id="Layer_1" xmlns="http://www.w3.org/2000/svg" xmlns:xlink="http://www.w3.org/1999/xlink" x="0px" y="0px"
	 viewBox="0 0 612 612" enable-background="new 0 0 612 612" xml:space="preserve">
<path fill="none" d="M0,612V0h612v612H0z"/>
<path d="M178.5,280.5h255c28.1,0,51-23,51-51v-102c0-28-22.9-51-51-51h-255c-28.1,0-51,23-51,51v102
	C127.5,257.5,150.4,280.5,178.5,280.5z"/>
<path d="M255,535.5h102c28.1,0,51-22.9,51-51v-102c0-28.1-22.9-51-51-51H255c-28.1,0-51,22.9-51,51v102
	C204,512.6,226.9,535.5,255,535.5z M255,382.5h102v102H255V382.5z"/>
<rect x="-51.5" y="629.5" display="none" width="306" height="204"/>
<rect x="-102.5" y="884.5" display="none" width="357" height="204"/>
<rect x="280.5" y="76.5" width="51" height="459"/>
</svg>
