<?xml version="1.0" encoding="utf-8"?>
<!-- Generator: Adobe Illustrator 18.1.0, SVG Export Plug-In . SVG Version: 6.00 Build 0)  -->
<svg version="1.1" id="Layer_1" xmlns="http://www.w3.org/2000/svg" xmlns:xlink="http://www.w3.org/1999/xlink" x="0px" y="0px"
	 viewBox="-281 463 612 612" enable-background="new -281 463 612 612" xml:space="preserve">
<path fill="none" d="M-281,463h612v612h-612V463z"/>
<path d="M50.5,692.5v255c0,28.1,23,51,51,51h102c28,0,51-22.9,51-51v-255c0-28.1-23-51-51-51h-102C73.5,641.5,50.5,664.4,50.5,692.5
	z"/>
<path d="M-204.5,692.5v102c0,28.1,22.9,51,51,51h102c28.1,0,51-22.9,51-51v-102c0-28.1-22.9-51-51-51h-102
	C-181.6,641.5-204.5,664.4-204.5,692.5z M-51.5,692.5v102h-102v-102H-51.5z"/>
<rect x="-51.5" y="539.5" display="none" width="306" height="204"/>
<rect x="-102.5" y="794.5" display="none" width="357" height="204"/>
<rect x="-204.5" y="539.5" width="459" height="51"/>
</svg>
