<?xml version="1.0" encoding="utf-8"?>
<!-- Generator: Adobe Illustrator 18.1.0, SVG Export Plug-In . SVG Version: 6.00 Build 0)  -->
<svg version="1.1" id="Layer_1" xmlns="http://www.w3.org/2000/svg" xmlns:xlink="http://www.w3.org/1999/xlink" x="0px" y="0px"
	 viewBox="0 0 612 612" enable-background="new 0 0 612 612" xml:space="preserve">
<path fill="none" d="M0,0l612,0v612H0L0,0z"/>
<path d="M331.5,178.5v255c0,28.1,23,51,51,51h102c28,0,51-22.9,51-51v-255c0-28.1-23-51-51-51h-102
	C354.5,127.5,331.5,150.4,331.5,178.5z"/>
<path d="M76.5,255v102c0,28.1,22.9,51,51,51h102c28.1,0,51-22.9,51-51V255c0-28.1-22.9-51-51-51h-102C99.4,204,76.5,226.9,76.5,255z
	 M229.5,255v102h-102V255H229.5z"/>
<rect x="-51.5" y="629.5" display="none" width="306" height="204"/>
<rect x="-102.5" y="884.5" display="none" width="357" height="204"/>
<rect x="76.5" y="280.5" width="459" height="51"/>
</svg>
