<?xml version="1.0" encoding="utf-8"?>
<!-- Generator: Adobe Illustrator 18.1.0, SVG Export Plug-In . SVG Version: 6.00 Build 0)  -->
<svg version="1.1" id="Layer_1" xmlns="http://www.w3.org/2000/svg" xmlns:xlink="http://www.w3.org/1999/xlink" x="0px" y="0px"
	 viewBox="-281 463 612 612" enable-background="new -281 463 612 612" xml:space="preserve">
<path fill="none" d="M331,1075h-612V463h612V1075z"/>
<path d="M-0.5,845.5v-255c0-28.1-23-51-51-51h-102c-28,0-51,22.9-51,51v255c0,28.1,23,51,51,51h102C-23.5,896.5-0.5,873.6-0.5,845.5
	z"/>
<path d="M254.5,845.5v-102c0-28.1-22.9-51-51-51h-102c-28.1,0-51,22.9-51,51v102c0,28.1,22.9,51,51,51h102
	C231.6,896.5,254.5,873.6,254.5,845.5z M101.5,845.5v-102h102v102H101.5z"/>
<rect x="-51.5" y="539.5" display="none" width="306" height="204"/>
<rect x="-102.5" y="794.5" display="none" width="357" height="204"/>
<rect x="-204.5" y="947.5" width="459" height="51"/>
</svg>
