<?xml version="1.0" encoding="utf-8"?>
<!-- Generator: Adobe Illustrator 18.1.0, SVG Export Plug-In . SVG Version: 6.00 Build 0)  -->
<svg version="1.1" id="Layer_1" xmlns="http://www.w3.org/2000/svg" xmlns:xlink="http://www.w3.org/1999/xlink" x="0px" y="0px"
	 viewBox="-281 463 612 612" enable-background="new -281 463 612 612" xml:space="preserve">
<path fill="none" d="M331,463v612h-612V463H331z"/>
<path d="M101.5,794.5h-255c-28.1,0-51,23-51,51v102c0,28,22.9,51,51,51h255c28.1,0,51-23,51-51v-102
	C152.5,817.5,129.6,794.5,101.5,794.5z"/>
<path d="M101.5,539.5h-102c-28.1,0-51,22.9-51,51v102c0,28.1,22.9,51,51,51h102c28.1,0,51-22.9,51-51v-102
	C152.5,562.4,129.6,539.5,101.5,539.5z M101.5,692.5h-102v-102h102V692.5z"/>
<rect x="-51.5" y="539.5" display="none" width="306" height="204"/>
<rect x="-102.5" y="794.5" display="none" width="357" height="204"/>
<rect x="203.5" y="539.5" width="51" height="459"/>
</svg>
