<?xml version="1.0" encoding="utf-8"?>
<!-- Generator: Adobe Illustrator 18.1.1, SVG Export Plug-In . SVG Version: 6.00 Build 0)  -->
<svg version="1.1" id="Layer_1" xmlns="http://www.w3.org/2000/svg" xmlns:xlink="http://www.w3.org/1999/xlink" x="0px" y="0px"
	 viewBox="0 90 612 612" enable-background="new 0 90 612 612" xml:space="preserve">
<rect x="102" y="192" width="127.5" height="204"/>
<rect x="280.5" y="192" width="229.5" height="204"/>
<rect x="102" y="434.2" width="216.8" height="165.8"/>
<rect x="357" y="438" width="153" height="162"/>
<rect y="90" fill="none" width="612" height="612"/>
<g>
	<path d="M306,179.5c29.2,0,57.6,5.7,84.3,17c25.8,10.9,48.9,26.5,68.8,46.4c19.9,19.9,35.5,43,46.4,68.8c11.3,26.7,17,55,17,84.3
		s-5.7,57.6-17,84.3c-10.9,25.8-26.5,48.9-46.4,68.8c-19.9,19.9-43,35.5-68.8,46.4c-26.7,11.3-55,17-84.3,17s-57.6-5.7-84.3-17
		c-25.8-10.9-48.9-26.5-68.8-46.4s-35.5-43-46.4-68.8c-11.3-26.7-17-55-17-84.3s5.7-57.6,17-84.3c10.9-25.8,26.5-48.9,46.4-68.8
		c19.9-19.9,43-35.5,68.8-46.4C248.4,185.2,276.8,179.5,306,179.5 M306,166.5C179.3,166.5,76.5,269.3,76.5,396
		S179.3,625.5,306,625.5S535.5,522.7,535.5,396S432.7,166.5,306,166.5L306,166.5z"/>
</g>
</svg>
