<?xml version="1.0" encoding="utf-8"?>
<!-- Generator: Adobe Illustrator 18.1.1, SVG Export Plug-In . SVG Version: 6.00 Build 0)  -->
<svg version="1.1" id="Layer_1" xmlns="http://www.w3.org/2000/svg" xmlns:xlink="http://www.w3.org/1999/xlink" x="0px" y="0px"
	 viewBox="0 0 48 48" enable-background="new 0 0 48 48" xml:space="preserve">
<rect x="5" y="5" width="10" height="13"/>
<rect x="26" y="3" width="18" height="16"/>
<g>
	<path d="M38,5h-2v1h2V5L38,5z M34,5h-2v1h2V5L34,5z M30,5h-2v1h2V5L30,5z M26,5h-2v1h2V5L26,5z M22,5h-2v1h2V5L22,5z M18,5h-2v1h2
		V5L18,5z M14,5h-2v1h2V5L14,5z M10,5H8v1h2V5L10,5z M7,5H6v2h1V5L7,5z M7,9H6v2h1V9L7,9z M7,13H6v2h1V13L7,13z M7,17H6v2h1V17L7,17
		z M7,21H6v2h1V21L7,21z M7,25H6v2h1V25L7,25z M7,29H6v2h1V29L7,29z M7,33H6v2h1V33L7,33z M7,37H6v2h1V37L7,37z M7,41H6l0,0l0,0l0,0
		l0,0l0,0v1h1l0,0l0,0l0,0l0,0l0,0V41L7,41z M11,41H9v1h2V41L11,41z M15,41h-2v1h2V41L15,41z M19,41h-2v1h2V41L19,41z M23,41h-2v1h2
		V41L23,41z M27,41h-2v1h2V41L27,41z M31,41h-2v1h2V41L31,41z M35,41h-2v1h2V41L35,41z M39,41h-2v1h2V41L39,41z M42,41h-1l0,0l0,0v1
		h1V41L42,41z M42,37h-1v2h1V37L42,37z M42,33h-1v2h1V33L42,33z M42,29h-1v2h1V29L42,29z M42,25h-1v2h1V25L42,25z M42,21h-1v2h1V21
		L42,21z M42,17h-1v2h1V17L42,17z M42,13h-1v2h1V13L42,13z M42,9h-1v2h1V9L42,9z M42,5h-2v1h1v1h1V5L42,5z"/>
</g>
<rect x="4" y="31" width="17" height="13"/>
<rect x="32" y="34" width="12" height="11"/>
<rect fill="none" width="48" height="48"/>
</svg>
